<svg xmlns="http://www.w3.org/2000/svg" fill="none" viewBox="0 0 24 24" height="256" width="256"><path fill="#000000" fill-rule="evenodd" d="M19.279 2.07607C19.7427 1.81238 20.3335 1.97037 20.6063 2.42876L20.6078 2.43133L20.6115 2.43764L20.6215 2.4549C20.6292 2.46846 20.639 2.48609 20.6507 2.50765C20.6741 2.55073 20.7049 2.60966 20.7405 2.68312C20.8115 2.82975 20.9028 3.0361 20.993 3.2916C21.1725 3.79939 21.3551 4.52112 21.3551 5.36449C21.3551 6.74798 20.8616 8.34336 19.3189 9.7853C19.3037 9.78517 19.2885 9.78511 19.2733 9.78511C16.3344 9.78511 13.9833 12.1363 13.9833 15.0752C13.9833 16.3442 14.4697 18.0023 15.1516 19.371L12.4582 21.6071C12.5578 21.8032 12.6422 22.0102 12.7098 22.2265C12.8078 22.5204 12.8078 22.8142 12.6119 23.1081C12.4159 23.402 12.122 23.5 11.8281 23.5H4.97067C4.57882 23.5 4.28491 23.3041 4.08898 22.9122C3.89305 22.5204 3.99099 22.1285 4.18692 21.8346C5.21253 20.6381 7.05843 19.8144 8.55352 19.6237L6.67434 16.4109L3.1097 18.4704C2.6504 18.7358 2.06204 18.5853 1.78403 18.1335L1.78254 18.1311L1.77892 18.1251L1.76923 18.1088C1.76171 18.0961 1.75212 18.0796 1.74074 18.0594C1.71801 18.019 1.68806 17.9639 1.65324 17.8952C1.58375 17.7581 1.49402 17.5653 1.40349 17.3263C1.22362 16.8514 1.03331 16.1752 1.00389 15.3808C0.949253 13.9055 1.45784 12.1445 3.30108 10.601L2.94468 9.97723C1.11707 6.77889 2.13944 2.74551 5.36643 0.901514C8.56168 -0.924348 12.5904 0.0943546 14.4368 3.31394L15.1148 4.44397L19.279 2.07607ZM7.90956 6.8462C7.90956 7.38724 7.47097 7.82584 6.92993 7.82584C6.38889 7.82584 5.95029 7.38724 5.95029 6.8462C5.95029 6.30517 6.38889 5.86657 6.92993 5.86657C7.47097 5.86657 7.90956 6.30517 7.90956 6.8462ZM9.86883 5.86657C10.4099 5.86657 10.8485 5.42797 10.8485 4.88693C10.8485 4.3459 10.4099 3.9073 9.86883 3.9073C9.3278 3.9073 8.8892 4.3459 8.8892 4.88693C8.8892 5.42797 9.3278 5.86657 9.86883 5.86657ZM9.67295 7.62984L8.39938 10.2749H11.8281L12.024 7.04208L9.67295 7.62984ZM22.6041 15.0752C22.6041 13.2139 21.1346 11.7444 19.2733 11.7444C17.51 11.7444 15.9425 13.3118 15.9425 15.0752C15.9425 16.8385 17.412 20.5611 19.2733 20.5611C21.1346 20.5611 22.6041 16.9365 22.6041 15.0752Z" clip-rule="evenodd"></path></svg>